<svg xmlns="http://www.w3.org/2000/svg" viewBox="0 0 24 24">
  <g fill="none" stroke="currentColor" stroke-linecap="round" stroke-linejoin="round"
     stroke-width="2">
    <path fill="currentColor" stroke="none"
          d="m13.772 20.605-1.955-5.618c-.736-2.112-1.103-3.169-.55-3.72.552-.553 1.61-.186 3.724.55l5.61 1.95c1.173.407 1.76.61 1.886 1.005a.8.8 0 0 1 .035.338c-.042.412-.573.733-1.636 1.375-.682.41-1.022.617-1.113.927a.8.8 0 0 0-.033.27c.015.324.297.604.862 1.165l1.855 1.844c.278.276.416.414.48.569a.83.83 0 0 1 .001.63c-.063.155-.202.294-.479.57-.276.277-.414.415-.569.478a.83.83 0 0 1-.63 0c-.155-.063-.293-.201-.569-.477L18.829 20.6c-.555-.555-.833-.832-1.152-.85a.8.8 0 0 0-.285.036c-.305.093-.508.429-.913 1.1-.634 1.052-.95 1.577-1.357 1.623a.8.8 0 0 1-.356-.037c-.389-.129-.59-.708-.994-1.867"/>
    <path
      d="M3 9.5v3M12.5 3h-3m0 16h.5m9-9v-.5M5.5 19A2.5 2.5 0 0 1 3 16.5m0-11A2.5 2.5 0 0 1 5.5 3M19 5.5A2.5 2.5 0 0 0 16.5 3"/>
  </g>
</svg>
